<svg >
  <defs>
    <svg id="cor-admin" viewBox="0 0 23 24"  fill="none" xmlns="http://www.w3.org/2000/svg">
      <rect x="5" y="6" width="13" height="10" fill="none" />
      <path  clip-rule="evenodd" d="M2.375 4.7915L11.375 0.791504L20.375 4.7915V10.7915C20.375
        16.3415 16.535 21.5315 11.375 22.7915C6.215 21.5315 2.375 16.3415 2.375 10.7915V4.7915ZM11.3761 10.792C12.7573
        10.792 13.8761 9.67324 13.8761 8.29199C13.8761 6.91074 12.7573 5.79199 11.3761 5.79199C9.99482 5.79199 8.87607
        6.91074 8.87607 8.29199C8.87607 9.67324 9.99482 10.792 11.3761 10.792ZM11.3768 12.0419C9.70801 12.0419 6.37676
        12.8794 6.37676 14.5419V15.7919H16.3768V14.5419C16.3768 12.8794 13.0455 12.0419 11.3768 12.0419Z" fill="currentColor"   />

    </svg>

    <svg id="cor-brand-umbrelo" viewBox="0 0 24 24"
         fill="none" preserveAspectRatio="xMidYMid meet"
         xmlns="http://www.w3.org/2000/svg">
      <mask id="mask0" mask-type="alpha" maskUnits="userSpaceOnUse" x="0" y="0" width="100" height="100">
        <path fill-rule="evenodd" clip-rule="evenodd"
              d="M16.5609 2.92875C16.2829 2.92875 16.0576 3.14668 16.0576 3.41551V3.9019C15.4774 3.56067 14.865 3.22196 14.1984 2.88701C12.9641 2.26676 12.2417 1.9718 12.031 2.00212C11.8202 1.9718 11.0423 2.27882 9.69722 2.9232C7.87991 3.79379 6.60281 4.61165 5.27667 5.46089C5.1305 5.5545 4.98372 5.64849 4.83557 5.74298C3.03842 6.8891 1.61468 8.01038 0.564354 9.10682C0.522918 9.15008 0.5 9.20614 0.5 9.26426C0.5 9.39445 0.612679 9.5 0.751675 9.5H1.05157C1.81499 8.87138 2.53872 8.55707 3.22275 8.55707C4.2488 8.55707 5.11549 8.81838 5.39393 9.5H5.58152C5.85996 8.81838 6.72665 8.45401 7.7527 8.45401C8.77874 8.45401 9.64544 8.81838 9.92388 9.5H10.101C10.3064 8.93432 10.872 8.58715 11.5798 8.48541V18.7143C11.5798 19.2883 11.7141 19.7218 11.9827 20.0147C12.2514 20.3076 12.6214 20.454 13.0929 20.454C13.4438 20.454 13.7727 20.372 14.0798 20.208L13.8166 19.4524C13.6521 19.5344 13.4548 19.5754 13.2245 19.5754C12.764 19.5754 12.5337 19.2766 12.5337 18.6791V8.49328C13.2173 8.6042 13.7605 8.94811 13.9609 9.49999H14.1381C14.4165 8.81838 15.2832 8.45401 16.3093 8.45401C17.3353 8.45401 18.202 8.81838 18.4804 9.49999H18.668C18.9465 8.81838 19.8132 8.55707 20.8392 8.55707C21.5232 8.55707 22.247 8.87138 23.0104 9.49999H23.2483C23.3166 9.49999 23.3818 9.47406 23.4292 9.42813C23.5259 9.33455 23.5232 9.18532 23.4233 9.09482C22.2115 7.99715 20.7263 6.87837 18.9677 5.73848C18.833 5.6512 18.6988 5.56395 18.5646 5.47673C18.4002 5.36984 18.2358 5.26302 18.0709 5.15628V3.41551C18.0709 3.14668 17.8456 2.92875 17.5676 2.92875H16.5609Z"
              fill="white"/>
      </mask>
      <g mask="url(#mask0)">
        <rect width="100%" height="100%" fill="currentColor"/>
      </g>
    </svg>

    <svg id="cor-loader-ball-flipper" xmlns="http://www.w3.org/2000/svg" xmlns:xlink="http://www.w3.org/1999/xlink" style="margin: auto; background: rgb(241, 242, 243); display: block;" width="24px" height="24px" viewBox="0 0 100 100" preserveAspectRatio="xMidYMid">
      <g transform="translate(50 50)">
        <g transform="rotate(180)">
          <animateTransform attributeName="transform" type="rotate" calcMode="discrete" values="0;90;180;270;360" keyTimes="0;0.25;0.5;0.75;1" dur="2.5s" repeatCount="indefinite"></animateTransform>
          <path d="M-40 0A40 40 0 1 0 40 0" fill="#929292">
            <animate attributeName="fill" calcMode="discrete" values="#929292;#b5b5b5;#d0d0d0;#dcdcdc;#929292" keyTimes="0;0.24;0.49;0.74;0.99" dur="2.5s" repeatCount="indefinite"></animate>
          </path>
          <path d="M-40 0A40 40 0 0 1 40 0" fill="#b5b5b5">
            <animate attributeName="fill" calcMode="discrete" values="#b5b5b5;#d0d0d0;#dcdcdc;#929292;#b5b5b5" keyTimes="0;0.25;0.5;0.75;1" dur="2.5s" repeatCount="indefinite"></animate>
          </path>
          <path d="M-39 0L39 0" stroke="#666666" stroke-width="2">
            <animate attributeName="stroke" values="#929292;#666666;#7f7f7f;#b5b5b5;#7f7f7f;#929292;#d0d0d0;#929292;#9a9a9a;#dcdcdc;#9a9a9a;#666666;#929292" keyTimes="0;0.124;0.125;0.25;0.374;0.375;0.5;0.624;0.625;0.75;0.874;0.875;1" dur="2.5s" repeatCount="indefinite"></animate>
          </path>
          <g>
            <path d="M-40 0A40 40 0 0 1 40 0Z" fill="#666666" transform="scale(1 -0.386687)">
              <animate attributeName="fill" values="#929292;#666666;#7f7f7f;#b5b5b5;#7f7f7f;#929292;#d0d0d0;#929292;#9a9a9a;#dcdcdc;#9a9a9a;#666666;#929292" keyTimes="0;0.124;0.125;0.25;0.374;0.375;0.5;0.624;0.625;0.75;0.874;0.875;1" dur="2.5s" repeatCount="indefinite"></animate>
              <animateTransform attributeName="transform" type="scale" values="1 1;1 0;1 -1;1 1" keyTimes="0;0.5;0.999;1" dur="0.625s" repeatCount="indefinite"></animateTransform>
            </path></g>
        </g>
      </g>
    </svg>

    <svg id="cor-mat-youtube" viewBox="0 0 24 24" xmlns="http://www.w3.org/2000/svg">
      <path d="M10,15L15.19,12L10,9V15M21.56,7.17C21.69,7.64 21.78,8.27 21.84,9.07C21.91,9.87 21.94,10.56 21.94,11.16L22,12C22,14.19 21.84,15.8 21.56,16.83C21.31,17.73 20.73,18.31 19.83,18.56C19.36,18.69 18.5,18.78 17.18,18.84C15.88,18.91 14.69,18.94 13.59,18.94L12,19C7.81,19 5.2,18.84 4.17,18.56C3.27,18.31 2.69,17.73 2.44,16.83C2.31,16.36 2.22,15.73 2.16,14.93C2.09,14.13 2.06,13.44 2.06,12.84L2,12C2,9.81 2.16,8.2 2.44,7.17C2.69,6.27 3.27,5.69 4.17,5.44C4.64,5.31 5.5,5.22 6.82,5.16C8.12,5.09 9.31,5.06 10.41,5.06L12,5C16.19,5 18.8,5.16 19.83,5.44C20.73,5.69 21.31,6.27 21.56,7.17Z"/>
    </svg>

    <svg id="cor-mat-play-box" viewBox="0 0 24 24" xmlns="http://www.w3.org/2000/svg">
      <path d="M19 3H5C3.89 3 3 3.89 3 5V19C3 20.1 3.9 21 5 21H19C20.1 21 21 20.1 21 19V5C21 3.89 20.1 3 19 3M10 16V8L15 12"/>
    </svg>

    <svg id="cor-mat-iframe" viewBox="0 0 24 24" xmlns="http://www.w3.org/2000/svg">
      <path d="M21,2H3A2,2 0 0,0 1,4V20A2,2 0 0,0 3,22H21A2,2 0 0,0 23,20V4A2,2 0 0,0 21,2M11,17.5L9.5,19L5,14.5L9.5,10L11,11.5L8,14.5L11,17.5M14.5,19L13,17.5L16,14.5L13,11.5L14.5,10L19,14.5L14.5,19M21,7H3V4H21V7Z"/>
    </svg>

    <svg id="cor-mat-iframe-outline" viewBox="0 0 24 24" xmlns="http://www.w3.org/2000/svg">
      <path d="M9.5,8.5L11,10L8,13L11,16L9.5,17.5L5,13L9.5,8.5M14.5,17.5L13,16L16,13L13,10L14.5,8.5L19,13L14.5,17.5M21,2H3A2,2 0 0,0 1,4V20A2,2 0 0,0 3,22H21A2,2 0 0,0 23,20V4A2,2 0 0,0 21,2M21,20H3V6H21V20Z"/>
    </svg>

    <svg id="cor-mat-youtube" viewBox="0 0 24 24" xmlns="http://www.w3.org/2000/svg">
      <path d="M10,15L15.19,12L10,9V15M21.56,7.17C21.69,7.64 21.78,8.27 21.84,9.07C21.91,9.87 21.94,10.56 21.94,11.16L22,12C22,14.19 21.84,15.8 21.56,16.83C21.31,17.73 20.73,18.31 19.83,18.56C19.36,18.69 18.5,18.78 17.18,18.84C15.88,18.91 14.69,18.94 13.59,18.94L12,19C7.81,19 5.2,18.84 4.17,18.56C3.27,18.31 2.69,17.73 2.44,16.83C2.31,16.36 2.22,15.73 2.16,14.93C2.09,14.13 2.06,13.44 2.06,12.84L2,12C2,9.81 2.16,8.2 2.44,7.17C2.69,6.27 3.27,5.69 4.17,5.44C4.64,5.31 5.5,5.22 6.82,5.16C8.12,5.09 9.31,5.06 10.41,5.06L12,5C16.19,5 18.8,5.16 19.83,5.44C20.73,5.69 21.31,6.27 21.56,7.17Z"/>
    </svg>

    <svg id="cor-mat-video-image" viewBox="0 0 24 24" xmlns="http://www.w3.org/2000/svg">
      <path d="M17,10.5L21,6.5V17.5L17,13.5V17A1,1 0 0,1 16,18H4A1,1 0 0,1 3,17V7A1,1 0 0,1 4,6H16A1,1 0 0,1 17,7V10.5M10.91,9.55L9.2,11.82L10.5,13.55L9.77,14.09L7.73,11.36L5,15H15L10.91,9.55Z"/>
    </svg>

    <svg id="cor-mat-shield-account" viewBox="0 0 24 24" xmlns="http://www.w3.org/2000/svg">
      <path d="M12,1L3,5V11C3,16.55 6.84,21.74 12,23C17.16,21.74 21,16.55 21,11V5L12,1M12,5A3,3 0 0,1 15,8A3,3 0 0,1 12,11A3,3 0 0,1 9,8A3,3 0 0,1 12,5M17.13,17C15.92,18.85 14.11,20.24 12,20.92C9.89,20.24 8.08,18.85 6.87,17C6.53,16.5 6.24,16 6,15.47C6,13.82 8.71,12.47 12,12.47C15.29,12.47 18,13.79 18,15.47C17.76,16 17.47,16.5 17.13,17Z"/>
    </svg>

    <svg id="cor-mat-shield-account-outline" viewBox="0 0 24 24" xmlns="http://www.w3.org/2000/svg">
      <path d="M12,1L3,5V11C3,16.55 6.84,21.74 12,23C17.16,21.74 21,16.55 21,11V5L12,1M12,3.18L19,6.3V11.22C19,12.92 18.5,14.65 17.65,16.17C16,14.94 13.26,14.5 12,14.5C10.74,14.5 8,14.94 6.35,16.17C5.5,14.65 5,12.92 5,11.22V6.3L12,3.18M12,6A3.5,3.5 0 0,0 8.5,9.5A3.5,3.5 0 0,0 12,13A3.5,3.5 0 0,0 15.5,9.5A3.5,3.5 0 0,0 12,6M12,8A1.5,1.5 0 0,1 13.5,9.5A1.5,1.5 0 0,1 12,11A1.5,1.5 0 0,1 10.5,9.5A1.5,1.5 0 0,1 12,8M12,16.5C13.57,16.5 15.64,17.11 16.53,17.84C15.29,19.38 13.7,20.55 12,21C10.3,20.55 8.71,19.38 7.47,17.84C8.37,17.11 10.43,16.5 12,16.5Z"/>
    </svg>

    <svg id="cor-mat-arrow-top-right-bottom-left" viewBox="0 0 24 24" xmlns="http://www.w3.org/2000/svg">
      <path d="M11,21H3V13H5V17.59L17.59,5H13V3H21V11H19V6.41L6.41,19H11V21Z"/></svg>

    <svg id="cor-mat-file-excel-box" viewBox="0 0 24 24" xmlns="http://www.w3.org/2000/svg">
      <path d="M16.2,17H14.2L12,13.2L9.8,17H7.8L11,12L7.8,7H9.8L12,10.8L14.2,7H16.2L13,12M19,3H5C3.89,3 3,3.89 3,5V19A2,2 0 0,0 5,21H19A2,2 0 0,0 21,19V5C21,3.89 20.1,3 19,3Z"/>
    </svg>

    <svg id="cor-mat-file-excel" viewBox="0 0 24 24" xmlns="http://www.w3.org/2000/svg">
      <path d="M14,2H6A2,2 0 0,0 4,4V20A2,2 0 0,0 6,22H18A2,2 0 0,0 20,20V8L14,2M15.8,20H14L12,16.6L10,20H8.2L11.1,15.5L8.2,11H10L12,14.4L14,11H15.8L12.9,15.5L15.8,20M13,9V3.5L18.5,9H13Z"/>
    </svg>

    <svg id="cor-mat-file-excel-outline" viewBox="0 0 24 24" xmlns="http://www.w3.org/2000/svg">
      <path d="M14 2H6C4.89 2 4 2.9 4 4V20C4 21.11 4.89 22 6 22H18C19.11 22 20 21.11 20 20V8L14 2M18 20H6V4H13V9H18V20M12.9 14.5L15.8 19H14L12 15.6L10 19H8.2L11.1 14.5L8.2 10H10L12 13.4L14 10H15.8L12.9 14.5Z"/>
    </svg>
    <svg id="cor-mat-file-word-outline" viewBox="0 0 24 24" xmlns="http://www.w3.org/2000/svg">
      <path d="M14 2H6C4.89 2 4 2.9 4 4V20C4 21.11 4.89 22 6 22H18C19.11 22 20 21.11 20 20V8L14 2M18 20H6V4H13V9H18V20M17.35 10L15.25 19H13.85L12.05 12.21L10.25 19H8.85L6.65 10H8.15L9.55 16.81L11.35 10H12.65L14.45 16.81L15.85 10H17.35Z"/>
    </svg>

    <svg id="cor-mat-file-excel-box-outline" viewBox="0 0 24 24" xmlns="http://www.w3.org/2000/svg">
      <path d="M5 3C3.89 3 3 3.89 3 5V19C3 20.11 3.89 21 5 21H19C20.11 21 21 20.11 21 19V5C21 3.89 20.11 3 19 3H5M5 5H19V19H5V5M13 12L16.2 17H14.2L12 13.2L9.8 17H7.8L11 12L7.8 7H9.8L12 10.8L14.2 7H16.2L13 12Z"/>
    </svg>

    <svg id="cor-mat-file-word" viewBox="0 0 24 24" xmlns="http://www.w3.org/2000/svg">
      <path d="M14,2H6A2,2 0 0,0 4,4V20A2,2 0 0,0 6,22H18A2,2 0 0,0 20,20V8L14,2M15.2,20H13.8L12,13.2L10.2,20H8.8L6.6,11H8.1L9.5,17.8L11.3,11H12.6L14.4,17.8L15.8,11H17.3L15.2,20M13,9V3.5L18.5,9H13Z"/>
    </svg>

    <svg id="cor-mat-file-word-box" viewBox="0 0 24 24" xmlns="http://www.w3.org/2000/svg">
      <path d="M15.5,17H14L12,9.5L10,17H8.5L6.1,7H7.8L9.34,14.5L11.3,7H12.7L14.67,14.5L16.2,7H17.9M19,3H5C3.89,3 3,3.89 3,5V19A2,2 0 0,0 5,21H19A2,2 0 0,0 21,19V5C21,3.89 20.1,3 19,3Z"/>
    </svg>

    <svg id="cor-mat-file-word-box-outline" viewBox="0 0 24 24" xmlns="http://www.w3.org/2000/svg">
      <path d="M5 3C3.89 3 3 3.89 3 5V19C3 20.11 3.89 21 5 21H19C20.11 21 21 20.11 21 19V5C21 3.89 20.11 3 19 3H5M5 5H19V19H5V5M17.9 7L15.5 17H14L12 9.5L10 17H8.5L6.1 7H7.8L9.34 14.5L11.3 7H12.7L14.67 14.5L16.2 7H17.9Z"/>
    </svg>

    <svg id="cor-mat-file-pdfcor-mat-zip-box-box" viewBox="0 0 24 24" xmlns="http://www.w3.org/2000/svg">
      <path d="M19,3A2,2 0 0,1 21,5V19A2,2 0 0,1 19,21H5C3.89,21 3,20.1 3,19V5C3,3.89 3.89,3 5,3H19M10.59,10.08C10.57,10.13 10.3,11.84 8.5,14.77C8.5,14.77 5,16.58 5.83,17.94C6.5,19 8.15,17.9 9.56,15.27C9.56,15.27 11.38,14.63 13.79,14.45C13.79,14.45 17.65,16.19 18.17,14.34C18.69,12.5 15.12,12.9 14.5,13.09C14.5,13.09 12.46,11.75 12,9.89C12,9.89 13.13,5.95 11.38,6C9.63,6.05 10.29,9.12 10.59,10.08M11.4,11.13C11.43,11.13 11.87,12.33 13.29,13.58C13.29,13.58 10.96,14.04 9.9,14.5C9.9,14.5 10.9,12.75 11.4,11.13M15.32,13.84C15.9,13.69 17.64,14 17.58,14.32C17.5,14.65 15.32,13.84 15.32,13.84M8.26,15.7C7.73,16.91 6.83,17.68 6.6,17.67C6.37,17.66 7.3,16.07 8.26,15.7M11.4,8.76C11.39,8.71 11.03,6.57 11.4,6.61C11.94,6.67 11.4,8.71 11.4,8.76Z"/>
    </svg>

    <svg id="cor-mat-file-pdf" viewBox="0 0 24 24" xmlns="http://www.w3.org/2000/svg">
      <path d="M13,9H18.5L13,3.5V9M6,2H14L20,8V20A2,2 0 0,1 18,22H6A2,2 0 0,1 4,20V4A2,2 0 0,1 6,2M10.1,11.4C10.08,11.44 9.81,13.16 8,16.09C8,16.09 4.5,17.91 5.33,19.27C6,20.35 7.65,19.23 9.07,16.59C9.07,16.59 10.89,15.95 13.31,15.77C13.31,15.77 17.17,17.5 17.7,15.66C18.22,13.8 14.64,14.22 14,14.41C14,14.41 12,13.06 11.5,11.2C11.5,11.2 12.64,7.25 10.89,7.3C9.14,7.35 9.8,10.43 10.1,11.4M10.91,12.44C10.94,12.45 11.38,13.65 12.8,14.9C12.8,14.9 10.47,15.36 9.41,15.8C9.41,15.8 10.41,14.07 10.91,12.44M14.84,15.16C15.42,15 17.17,15.31 17.1,15.64C17.04,15.97 14.84,15.16 14.84,15.16M7.77,17C7.24,18.24 6.33,19 6.1,19C5.87,19 6.8,17.4 7.77,17M10.91,10.07C10.91,10 10.55,7.87 10.91,7.92C11.45,8 10.91,10 10.91,10.07Z"/>
    </svg>

    <svg id="cor-mat-pdf-box" viewBox="0 0 24 24" xmlns="http://www.w3.org/2000/svg">
      <path d="M12,10.5H13V13.5H12V10.5M7,11.5H8V10.5H7V11.5M20,6V18A2,2 0 0,1 18,20H6A2,2 0 0,1 4,18V6A2,2 0 0,1 6,4H18A2,2 0 0,1 20,6M9.5,10.5A1.5,1.5 0 0,0 8,9H5.5V15H7V13H8A1.5,1.5 0 0,0 9.5,11.5V10.5M14.5,10.5A1.5,1.5 0 0,0 13,9H10.5V15H13A1.5,1.5 0 0,0 14.5,13.5V10.5M18.5,9H15.5V15H17V13H18.5V11.5H17V10.5H18.5V9Z"/>
    </svg>

    <svg id="cor-mat-file-pdf" viewBox="0 0 24 24" xmlns="http://www.w3.org/2000/svg">
      <path d="M13,9H18.5L13,3.5V9M6,2H14L20,8V20A2,2 0 0,1 18,22H6A2,2 0 0,1 4,20V4A2,2 0 0,1 6,2M10.1,11.4C10.08,11.44 9.81,13.16 8,16.09C8,16.09 4.5,17.91 5.33,19.27C6,20.35 7.65,19.23 9.07,16.59C9.07,16.59 10.89,15.95 13.31,15.77C13.31,15.77 17.17,17.5 17.7,15.66C18.22,13.8 14.64,14.22 14,14.41C14,14.41 12,13.06 11.5,11.2C11.5,11.2 12.64,7.25 10.89,7.3C9.14,7.35 9.8,10.43 10.1,11.4M10.91,12.44C10.94,12.45 11.38,13.65 12.8,14.9C12.8,14.9 10.47,15.36 9.41,15.8C9.41,15.8 10.41,14.07 10.91,12.44M14.84,15.16C15.42,15 17.17,15.31 17.1,15.64C17.04,15.97 14.84,15.16 14.84,15.16M7.77,17C7.24,18.24 6.33,19 6.1,19C5.87,19 6.8,17.4 7.77,17M10.91,10.07C10.91,10 10.55,7.87 10.91,7.92C11.45,8 10.91,10 10.91,10.07Z"/>
    </svg>

    <svg id="cor-mat-file-pdf-outline" viewBox="0 0 24 24" xmlns="http://www.w3.org/2000/svg">
      <path d="M14,2L20,8V20A2,2 0 0,1 18,22H6A2,2 0 0,1 4,20V4A2,2 0 0,1 6,2H14M18,20V9H13V4H6V20H18M10.92,12.31C10.68,11.54 10.15,9.08 11.55,9.04C12.95,9 12.03,12.16 12.03,12.16C12.42,13.65 14.05,14.72 14.05,14.72C14.55,14.57 17.4,14.24 17,15.72C16.57,17.2 13.5,15.81 13.5,15.81C11.55,15.95 10.09,16.47 10.09,16.47C8.96,18.58 7.64,19.5 7.1,18.61C6.43,17.5 9.23,16.07 9.23,16.07C10.68,13.72 10.9,12.35 10.92,12.31M11.57,13.15C11.17,14.45 10.37,15.84 10.37,15.84C11.22,15.5 13.08,15.11 13.08,15.11C11.94,14.11 11.59,13.16 11.57,13.15M14.71,15.32C14.71,15.32 16.46,15.97 16.5,15.71C16.57,15.44 15.17,15.2 14.71,15.32M9.05,16.81C8.28,17.11 7.54,18.39 7.72,18.39C7.9,18.4 8.63,17.79 9.05,16.81M11.57,11.26C11.57,11.21 12,9.58 11.57,9.53C11.27,9.5 11.56,11.22 11.57,11.26Z"/>
    </svg>

    <svg id="cor-mat-file-pdf-box-outline" viewBox="0 0 24 24" xmlns="http://www.w3.org/2000/svg">
      <path d="M19 3H5C3.9 3 3 3.9 3 5V19C3 20.1 3.9 21 5 21H19C20.1 21 21 20.1 21 19V5C21 3.9 20.1 3 19 3M19 5V19H5V5H19M17.9 13.5C17.6 13 16.9 12.8 15.7 12.8C15.3 12.8 14.9 12.8 14.5 12.9C14.2 12.7 13.9 12.5 13.7 12.3C13.1 11.8 12.5 10.9 12.2 9.8V9.7C12.5 8.4 12.8 6.9 12.2 6.2C11.9 6.1 11.7 6 11.5 6H11.3C10.9 6 10.6 6.4 10.5 6.7C10.1 8 10.4 8.7 10.7 9.9C10.5 10.8 10.1 11.7 9.7 12.7C9.3 13.4 9 14 8.7 14.5C8.3 14.7 8 14.8 7.8 15C6.7 15.7 6.1 16.5 6 17V17.5L6.5 17.8C6.7 18 6.8 18 7 18C7.8 18 8.7 17.1 9.9 15H10C11 14.7 12.2 14.5 13.9 14.3C14.9 14.8 16.1 15 16.8 15C17.2 15 17.5 14.9 17.7 14.7C17.9 14.5 18 14.3 18 14.1C18 13.8 18 13.6 17.9 13.5M6.8 17.3C6.8 16.9 7.3 16.3 8 15.7C8.1 15.6 8.3 15.5 8.5 15.4C7.8 16.5 7.2 17.2 6.8 17.3M11.3 6.7C11.3 6.7 11.3 6.6 11.4 6.6H11.5C11.7 6.8 11.7 7.1 11.6 7.7V7.9C11.5 8.1 11.5 8.4 11.4 8.7C11.1 7.8 11.1 7.1 11.3 6.7M10.1 14.3H10C10.1 14 10.3 13.7 10.5 13.3C10.9 12.5 11.3 11.7 11.5 11C11.9 11.9 12.4 12.6 13 13.1C13.1 13.2 13.3 13.3 13.4 13.4C12.5 13.5 11.3 13.8 10.1 14.3M17.3 14.2H17.1C16.7 14.2 16 14 15.3 13.7C15.4 13.6 15.5 13.6 15.5 13.6C16.9 13.6 17.2 13.8 17.3 13.9L17.4 14C17.4 14.2 17.4 14.2 17.3 14.2Z"/>
    </svg>

    <svg id="cor-mat-zip-box" viewBox="0 0 24 24" xmlns="http://www.w3.org/2000/svg">
      <path d="M14,17H12V15H10V13H12V15H14M14,9H12V11H14V13H12V11H10V9H12V7H10V5H12V7H14M19,3H5C3.89,3 3,3.89 3,5V19A2,2 0 0,0 5,21H19A2,2 0 0,0 21,19V5C21,3.89 20.1,3 19,3Z"/>
    </svg>

    <svg id="cor-zip-box-outline" viewBox="0 0 24 24" xmlns="http://www.w3.org/2000/svg">
      <path d="M12 17V15H14V17H12M14 13V11H12V13H14M14 9V7H12V9H14M10 11H12V9H10V11M10 15H12V13H10V15M21 5V19C21 20.1 20.1 21 19 21H5C3.9 21 3 20.1 3 19V5C3 3.9 3.9 3 5 3H19C20.1 3 21 3.9 21 5M19 5H12V7H10V5H5V19H19V5Z"/>
    </svg>

    <svg id="cor-mat-file-powerpoint" viewBox="0 0 24 24" xmlns="http://www.w3.org/2000/svg">
      <path d="M12.6,12.3H10.6V15.5H12.7C13.3,15.5 13.6,15.3 13.9,15C14.2,14.7 14.3,14.4 14.3,13.9C14.3,13.4 14.2,13.1 13.9,12.8C13.6,12.5 13.2,12.3 12.6,12.3M14,2H6A2,2 0 0,0 4,4V20A2,2 0 0,0 6,22H18A2,2 0 0,0 20,20V8L14,2M15.2,16C14.6,16.5 14.1,16.7 12.8,16.7H10.6V20H9V11H12.8C14.1,11 14.7,11.3 15.2,11.8C15.8,12.4 16,13 16,13.9C16,14.8 15.8,15.5 15.2,16M13,9V3.5L18.5,9H13Z"/>
    </svg>

    <svg id="cor-mat-file-powerpoint-box" viewBox="0 0 24 24" xmlns="http://www.w3.org/2000/svg">
      <path d="M9.8,13.4H12.3C13.8,13.4 14.46,13.12 15.1,12.58C15.74,12.03 16,11.25 16,10.23C16,9.26 15.75,8.5 15.1,7.88C14.45,7.29 13.83,7 12.3,7H8V17H9.8V13.4M19,3A2,2 0 0,1 21,5V19A2,2 0 0,1 19,21H5A2,2 0 0,1 3,19V5C3,3.89 3.9,3 5,3H19M9.8,12V8.4H12.1C12.76,8.4 13.27,8.65 13.6,9C13.93,9.35 14.1,9.72 14.1,10.24C14.1,10.8 13.92,11.19 13.6,11.5C13.28,11.81 12.9,12 12.22,12H9.8Z"/>
    </svg>

    <svg id="cor-mat-file-powerpoint-box-outline" viewBox="0 0 24 24" xmlns="http://www.w3.org/2000/svg">
      <path d="M5 3C3.89 3 3 3.89 3 5V19C3 20.11 3.89 21 5 21H19C20.11 21 21 20.11 21 19V5C21 3.89 20.11 3 19 3H5M5 5H19V19H5V5M15.1 7.88C14.45 7.29 13.83 7 12.3 7H8V17H9.8V13.4H12.3C13.8 13.4 14.46 13.12 15.1 12.58C15.74 12.03 16 11.25 16 10.23C16 9.26 15.75 8.5 15.1 7.88M13.6 11.5C13.28 11.81 12.9 12 12.22 12H9.8V8.4H12.1C12.76 8.4 13.27 8.65 13.6 9C13.93 9.35 14.1 9.72 14.1 10.24C14.1 10.8 13.92 11.19 13.6 11.5Z"/>
    </svg>

    <svg id="cor-mat-file-powerpoint-outline" viewBox="0 0 24 24" xmlns="http://www.w3.org/2000/svg">
      <path d="M14 2H6C4.89 2 4 2.9 4 4V20C4 21.11 4.89 22 6 22H18C19.11 22 20 21.11 20 20V8L14 2M18 20H6V4H13V9H18V20M15.2 10.8C14.7 10.3 14.1 10 12.8 10H9V19H10.6V15.7H12.8C14.1 15.7 14.6 15.5 15.2 15C15.8 14.5 16 13.8 16 12.9C16 12 15.8 11.4 15.2 10.8M13.9 14C13.6 14.3 13.3 14.5 12.7 14.5H10.6V11.3H12.6C13.2 11.3 13.6 11.5 13.9 11.8C14.2 12.1 14.3 12.4 14.3 12.9S14.2 13.7 13.9 14Z"/>
    </svg>

    <svg id="cor-mat-folder-image" viewBox="0 0 24 24" xmlns="http://www.w3.org/2000/svg">
      <path d="M5,17L9.5,11L13,15.5L15.5,12.5L19,17M20,6H12L10,4H4A2,2 0 0,0 2,6V18A2,2 0 0,0 4,20H20A2,2 0 0,0 22,18V8A2,2 0 0,0 20,6Z"/>
    </svg>

    <svg id="cor-mat-folder-lock" viewBox="0 0 24 24" xmlns="http://www.w3.org/2000/svg">
      <path d="M20,6A2,2 0 0,1 22,8V18A2,2 0 0,1 20,20H4C2.89,20 2,19.1 2,18V6C2,4.89 2.89,4 4,4H10L12,6H20M19,17V13H18V12A3,3 0 0,0 15,9A3,3 0 0,0 12,12V13H11V17H19M15,11A1,1 0 0,1 16,12V13H14V12A1,1 0 0,1 15,11Z"/>
    </svg>

    <svg id="cor-mat-folder-lock-open" viewBox="0 0 24 24" xmlns="http://www.w3.org/2000/svg">
      <path d="M20,6A2,2 0 0,1 22,8V18A2,2 0 0,1 20,20H4C2.89,20 2,19.1 2,18V6C2,4.89 2.89,4 4,4H10L12,6H20M19,17V13H18L16,13H14V11A1,1 0 0,1 15,10A1,1 0 0,1 16,11H18A3,3 0 0,0 15,8A3,3 0 0,0 12,11V13H11V17H19Z"/>
    </svg>

    <svg id="cor-mat-folder-marker" viewBox="0 0 24 24" xmlns="http://www.w3.org/2000/svg">
      <path d="M10 4L12 6H20C21.1 6 22 6.89 22 8V11.34C21.04 10.5 19.82 10 18.5 10C15.5 10 13 12.65 13 15.5C13 16.97 13.65 18.55 14.5 20H4C2.89 20 2 19.1 2 18L2 6C2 4.89 2.89 4 4 4H10M18.5 12C20.4 12 22 13.6 22 15.5C22 18.1 18.5 22 18.5 22C18.5 22 15 18.1 15 15.5C15 13.6 16.6 12 18.5 12M18.5 16.8C19.2 16.8 19.8 16.2 19.7 15.6C19.7 15 19.1 14.4 18.5 14.4C17.9 14.4 17.3 14.9 17.3 15.6C17.3 16.2 17.8 16.8 18.5 16.8Z"/>
    </svg>

    <svg id="cor-mat-csv" style="transform: scale(1,-1)" viewBox="0 0 512 512">
      <path d="M379 192l37 128h-32l-21 -73l-22 73h-32l38 -128h32zM288 293v27h-64q-9 0 -15 -6t-6 -15v-32q0 -9 6 -16.5t15 -7.5h37v-24h-58v-27h64q9 0 15 6t6 15v32q0 9 -6 16.5t-15 7.5h-38v24h59zM181 293v27h-53q-27 0 -27 -32v-64q0 -32 27 -32h53v27h-53v74h53zM405 448 q17 0 30 -13t13 -30v-298q0 -17 -13 -30t-30 -13h-298q-17 0 -30 13t-13 30v298q0 17 13 30t30 13h298z"> </path>
    </svg>

    <svg id="cor-mat-comma-box" viewBox="0 0 24 24" xmlns="http://www.w3.org/2000/svg">
      <path d="M5,3H19A2,2 0 0,1 21,5V19A2,2 0 0,1 19,21H5A2,2 0 0,1 3,19V5A2,2 0 0,1 5,3M15,13V7H9V13H12L10,17H13L15,13Z"/>
    </svg>

    <svg id="cor-mat-comma-box-outline" viewBox="0 0 24 24" xmlns="http://www.w3.org/2000/svg">
      <path d="M10,17L12,13H9V7H15V13L13,17H10M5,3H19A2,2 0 0,1 21,5V19A2,2 0 0,1 19,21H5A2,2 0 0,1 3,19V5A2,2 0 0,1 5,3M5,5V19H19V5H5Z"/>
    </svg>

    <svg id="cor-mat-file-delimited" viewBox="0 0 24 24" xmlns="http://www.w3.org/2000/svg">
      <path d="M14 2H6C4.9 2 4 2.9 4 4V20C4 21.1 4.9 22 6 22H18C19.1 22 20 21.1 20 20V8L14 2M15 16L13 20H10L12 16H9V11H15V16M13 9V3.5L18.5 9H13Z"/>
    </svg>

    <svg id="cor-mat-file-delimited-outline" viewBox="0 0 24 24" xmlns="http://www.w3.org/2000/svg">
      <path d="M14 2H6C4.9 2 4 2.9 4 4V20C4 21.1 4.9 22 6 22H18C19.1 22 20 21.1 20 20V8L14 2M18 20H6V4H13V9H18V20M10 19L12 15H9V10H15V15L13 19H10"/>
    </svg>

    <svg id="cor-mat-file-link" viewBox="0 0 24 24" xmlns="http://www.w3.org/2000/svg">
      <path d="M14 2H6C4.89 2 4 2.89 4 4V20C4 21.11 4.89 22 6 22H18C19.11 22 20 21.11 20 20V8L14 2M11 20H10C8.39 20 6 18.94 6 16C6 13.07 8.39 12 10 12H11V14H10C9.54 14 8 14.17 8 16C8 17.9 9.67 18 10 18H11V20M15 15V17H9V15H15M14 20H13V18H14C14.46 18 16 17.83 16 16C16 14.1 14.33 14 14 14H13V12H14C15.61 12 18 13.07 18 16C18 18.94 15.61 20 14 20M13 9V3.5L18.5 9H13Z"/>
    </svg>

    <svg id="cor-mat-file-link-outline" viewBox="0 0 24 24" xmlns="http://www.w3.org/2000/svg">
      <path d="M14 2H6C4.89 2 4 2.9 4 4V20C4 21.11 4.89 22 6 22H18C19.11 22 20 21.11 20 20V8L14 2M18 20H6V4H13V9H18V20M11 19H10.75C9.45 19 7 18.22 7 15.25S9.45 11.5 10.75 11.5H11V13H10.75C10.38 13 8.5 13.13 8.5 15.25C8.5 17.44 10.5 17.5 10.75 17.5H11V19M14 16H10V14.5H14V16M13 11.5H13.25C14.55 11.5 17 12.28 17 15.25S14.55 19 13.25 19H13V17.5H13.25C13.62 17.5 15.5 17.37 15.5 15.25C15.5 13.06 13.5 13 13.25 13H13V11.5Z"/>
    </svg>

    <svg id="cor-mat-link-box" viewBox="0 0 24 24" xmlns="http://www.w3.org/2000/svg">
      <path d="M19,3H5A2,2 0 0,0 3,5V19A2,2 0 0,0 5,21H19A2,2 0 0,0 21,19V5A2,2 0 0,0 19,3M11,16H10C8.39,16 6,14.94 6,12C6,9.07 8.39,8 10,8H11V10H10C9.54,10 8,10.17 8,12C8,13.9 9.67,14 10,14H11V16M15,11V13H9V11H15M14,16H13V14H14C14.46,14 16,13.83 16,12C16,10.1 14.33,10 14,10H13V8H14C15.61,8 18,9.07 18,12C18,14.94 15.61,16 14,16Z"/>
    </svg>

    <svg id="cor-mat-link-box-outline" viewBox="0 0 24 24" xmlns="http://www.w3.org/2000/svg">
      <path d="M19,3H5A2,2 0 0,0 3,5V19A2,2 0 0,0 5,21H19A2,2 0 0,0 21,19V5A2,2 0 0,0 19,3M19,19H5V5H19V19M11,16H10C8.39,16 6,14.94 6,12C6,9.07 8.39,8 10,8H11V10H10C9.54,10 8,10.17 8,12C8,13.9 9.67,14 10,14H11V16M14,16H13V14H14C14.46,14 16,13.83 16,12C16,10.1 14.33,10 14,10H13V8H14C15.61,8 18,9.07 18,12C18,14.94 15.61,16 14,16M15,13H9V11H15V13Z"/>
    </svg>

    <svg id="cor-mat-file-lock" viewBox="0 0 24 24" xmlns="http://www.w3.org/2000/svg">
      <path d="M6,2C4.89,2 4,2.9 4,4V20A2,2 0 0,0 6,22H18A2,2 0 0,0 20,20V8L14,2H6M13,3.5L18.5,9H13V3.5M12,11A3,3 0 0,1 15,14V15H16V19H8V15H9V14C9,12.36 10.34,11 12,11M12,13A1,1 0 0,0 11,14V15H13V14C13,13.47 12.55,13 12,13Z"/>
    </svg>

    <svg id="cor-mat-file-lock-outline" viewBox="0 0 24 24" xmlns="http://www.w3.org/2000/svg">
      <path d="M14 2H6C4.89 2 4 2.9 4 4V20C4 21.11 4.89 22 6 22H18C19.11 22 20 21.11 20 20V8L14 2M18 20H6V4H13V9H18V20M15 15V14C15 12.34 13.66 11 12 11S9 12.36 9 14V15H8V19H16V15H15M13 15H11V14C11 13.45 11.45 13 12 13S13 13.47 13 14V15Z"/>
    </svg>

    <svg id="cor-mat-emoticon-angry" viewBox="0 0 24 24" xmlns="http://www.w3.org/2000/svg">
      <path d="M12,2A10,10 0 0,0 2,12A10,10 0 0,0 12,22A10,10 0 0,0 22,12A10,10 0 0,0 12,2M7,9.5V8L10,9.5C10,10.3 9.3,11 8.5,11C7.7,11 7,10.3 7,9.5M14.77,17.23C14.32,16.5 13.25,16 12,16C10.75,16 9.68,16.5 9.23,17.23L7.81,15.81C8.71,14.72 10.25,14 12,14C13.75,14 15.29,14.72 16.19,15.81L14.77,17.23M17,9.5C17,10.3 16.3,11 15.5,11C14.7,11 14,10.3 14,9.5L17,8V9.5Z"/>
    </svg>

    <svg id="cor-mat-emoticon-lol" viewBox="0 0 24 24" xmlns="http://www.w3.org/2000/svg">
      <path d="M15.07 8.93V4.93A4.06 4.06 0 0 1 15.73 2.72A10 10 0 0 0 2.73 15.72A4.06 4.06 0 0 1 4.94 15.06H8.94V19.06A4.06 4.06 0 0 1 8.28 21.27A10 10 0 0 0 21.28 8.27A4.06 4.06 0 0 1 19.07 8.93M11 6H12.5V7.5H14V9H11M7.5 14V12.5H6V11H9V14M15.89 15.9A5.5 5.5 0 0 1 9.8 17L17 9.8A5.5 5.5 0 0 1 15.89 15.89M4.89 21.08A2 2 0 0 1 2.89 19.08A2 2 0 0 1 4.89 17.08H6.89V19.08A2 2 0 0 1 4.93 21.07M19.07 2.93A2 2 0 0 1 21.07 4.93A2 2 0 0 1 19.07 6.93H17.07V4.93A2 2 0 0 1 19.07 2.93Z"/>
    </svg>

    <svg id="cor-emoticon-cry" viewBox="0 0 24 24" xmlns="http://www.w3.org/2000/svg">
      <path d="M5.14,17.57C5.14,16.5 6.32,14.5 7.57,12.81C8.82,14.5 10,16.5 10,17.57A2.43,2.43 0 0,1 7.57,20C6.23,20 5.14,18.91 5.14,17.57M22,12A10,10 0 0,1 12,22C11.08,22 10.18,21.86 9.33,21.63C10.9,20.95 12,19.39 12,17.57C12,17.12 11.89,16.6 11.69,16C11.79,16 11.89,16 12,16C13.25,16 14.32,16.5 14.77,17.23L16.19,15.81C15.29,14.72 13.75,14 12,14C11.59,14 11.19,14.04 10.81,14.12C10.38,13.36 9.85,12.53 9.19,11.63L8.71,11C9.42,10.87 10,10.23 10,9.5C10,8.7 9.3,8 8.5,8C7.7,8 7,8.7 7,9.5C7,9.69 7.04,9.87 7.11,10.04L5.96,11.63C4.4,13.75 3.5,15.5 3.23,16.81C2.45,15.38 2,13.74 2,12A10,10 0 0,1 12,2A10,10 0 0,1 22,12M17,9.5C17,8.7 16.3,8 15.5,8C14.7,8 14,8.7 14,9.5C14,10.3 14.7,11 15.5,11C16.3,11 17,10.3 17,9.5Z"/>
    </svg>
  </defs>
</svg>
